<svg xmlns="http://www.w3.org/2000/svg" x="0px" y="0px" width="100" height="100" viewBox="0 0 100 100">
<circle cx="13" cy="29" r="2" fill="#ee3e54"></circle><circle cx="77" cy="13" r="1" fill="#f1bc19"></circle><circle cx="50" cy="50.25" r="37" fill="#fce0a2"></circle><circle cx="83" cy="15" r="4" fill="#f1bc19"></circle><circle cx="87" cy="24" r="2" fill="#ee3e54"></circle><circle cx="81" cy="76" r="2" fill="#fbcd59"></circle><circle cx="15" cy="63" r="4" fill="#fbcd59"></circle><circle cx="25" cy="87" r="2" fill="#ee3e54"></circle><circle cx="18.5" cy="53.5" r="2.5" fill="#fff"></circle><circle cx="21" cy="67" r="1" fill="#f1bc19"></circle><circle cx="80" cy="34" r="1" fill="#fff"></circle><g><path fill="#1f212b" d="M65,28c3.86,0,7,3.14,7,7v30c0,3.86-3.14,7-7,7H35c-3.86,0-7-3.14-7-7V35c0-3.86,3.14-7,7-7H65"></path><path fill="#4792dd" d="M37.979,62.021C34.769,58.81,33,54.541,33,50s1.769-8.81,4.979-12.021C41.19,34.769,45.459,33,50,33 s8.81,1.769,12.021,4.979l-1.414,1.414C57.773,36.561,54.007,35,50,35s-7.773,1.561-10.606,4.394S35,45.993,35,50 s1.561,7.773,4.394,10.606L37.979,62.021z"></path><path fill="#d401fc" d="M28.41,39.46c-0.48-0.271-0.67-0.87-0.4-1.36l0,0c0.26-0.49,0.87-0.67,1.35-0.399l0,0 c0.49,0.26,0.67,0.869,0.41,1.35l0,0c-0.19,0.34-0.53,0.53-0.88,0.53l0,0C28.73,39.58,28.56,39.54,28.41,39.46z M70.22,39.02 c-0.27-0.479-0.09-1.09,0.4-1.35l0,0c0.48-0.271,1.09-0.09,1.35,0.399l0,0c0.27,0.48,0.09,1.091-0.4,1.351l0,0 c-0.15,0.09-0.31,0.12-0.47,0.12l0,0C70.74,39.54,70.4,39.359,70.22,39.02z M30.44,36.05c-0.43-0.34-0.51-0.97-0.17-1.4l0,0 c0.34-0.439,0.96-0.52,1.4-0.18l0,0c0.44,0.34,0.52,0.97,0.18,1.41l0,0c-0.2,0.25-0.5,0.38-0.79,0.38l0,0 C30.84,36.26,30.63,36.189,30.44,36.05z M68.13,35.85L68.13,35.85c-0.34-0.439-0.26-1.069,0.18-1.399l0,0 c0.43-0.341,1.06-0.271,1.4,0.17l0,0l0,0l0,0c0.34,0.43,0.26,1.06-0.17,1.399l0,0c-0.19,0.15-0.4,0.21-0.62,0.21l0,0 C68.63,36.229,68.33,36.1,68.13,35.85z M33.01,33.02c-0.38-0.399-0.35-1.029,0.05-1.41l0,0c0.41-0.369,1.04-0.35,1.42,0.061l0,0 c0.37,0.399,0.34,1.04-0.06,1.41l0,0c-0.19,0.18-0.44,0.27-0.68,0.27l0,0C33.47,33.35,33.2,33.24,33.01,33.02z M65.56,33.06 c-0.41-0.37-0.44-1.01-0.06-1.41l0,0c0.37-0.409,1-0.439,1.41-0.06l0,0c0.41,0.37,0.44,1,0.06,1.41l0,0 c-0.2,0.21-0.47,0.319-0.74,0.319l0,0C65.99,33.319,65.75,33.24,65.56,33.06z M36.03,30.46c-0.31-0.46-0.18-1.08,0.29-1.391l0,0 l0,0l0,0c0.46-0.3,1.08-0.17,1.38,0.29l0,0c0.3,0.46,0.17,1.08-0.29,1.391l0,0c-0.17,0.109-0.36,0.16-0.54,0.16l0,0 C36.54,30.91,36.22,30.75,36.03,30.46z M62.56,30.729L62.56,30.729c-0.46-0.3-0.59-0.92-0.29-1.39l0,0 c0.3-0.46,0.92-0.59,1.38-0.29l0,0c0.47,0.3,0.6,0.93,0.29,1.39l0,0c-0.19,0.29-0.51,0.45-0.84,0.45l0,0 C62.92,30.89,62.73,30.84,62.56,30.729z M39.43,28.42c-0.22-0.5,0.01-1.09,0.51-1.32l0,0c0.51-0.22,1.1,0.01,1.32,0.521l0,0 c0.22,0.5-0.01,1.09-0.51,1.319v-0.01c-0.13,0.061-0.27,0.09-0.4,0.09l0,0C39.96,29.02,39.6,28.8,39.43,28.42z M59.22,28.92 c-0.51-0.22-0.74-0.811-0.52-1.32l0,0c0.23-0.5,0.82-0.729,1.32-0.51l0,0c0.51,0.22,0.74,0.81,0.52,1.32l0,0 c-0.17,0.37-0.53,0.6-0.92,0.6l0,0C59.49,29.01,59.35,28.979,59.22,28.92z"></path><path fill="#a808fb" d="M61.3,71.189c-0.21-0.359-0.08-0.819,0.28-1.02l0,0c0.36-0.21,0.81-0.09,1.02,0.27l0,0 c0.21,0.36,0.08,0.82-0.28,1.03l0,0l0,0l0,0c-0.11,0.061-0.24,0.1-0.37,0.1l0,0C61.69,71.569,61.44,71.43,61.3,71.189z M37.52,71.38c-0.36-0.21-0.48-0.67-0.27-1.03l0,0c0.21-0.359,0.67-0.479,1.03-0.27l0,0c0.36,0.21,0.48,0.67,0.27,1.029l0,0 c-0.14,0.24-0.39,0.37-0.65,0.37l0,0C37.77,71.479,37.64,71.45,37.52,71.38z M64.81,68.899c-0.26-0.319-0.22-0.79,0.1-1.06l0,0 c0.32-0.26,0.79-0.22,1.05,0.1l0,0c0.27,0.311,0.23,0.79-0.09,1.051l0,0c-0.14,0.119-0.31,0.18-0.48,0.18l0,0 C65.18,69.17,64.96,69.069,64.81,68.899z M33.99,68.88L33.99,68.88L33.99,68.88c-0.31-0.271-0.35-0.74-0.08-1.061l0,0 c0.26-0.319,0.74-0.359,1.05-0.09l0,0c0.32,0.271,0.36,0.75,0.09,1.061l0,0c-0.15,0.18-0.36,0.27-0.57,0.27l0,0 C34.31,69.06,34.13,69,33.99,68.88z M67.88,66.03c-0.32-0.271-0.36-0.74-0.09-1.061l0,0c0.26-0.31,0.74-0.35,1.05-0.09l0,0 c0.32,0.27,0.36,0.74,0.09,1.06l0,0c0,0,0,0,0.01,0l0,0c-0.15,0.17-0.37,0.271-0.58,0.271l0,0 C68.19,66.21,68.02,66.149,67.88,66.03z M30.95,65.8L30.95,65.8L30.95,65.8c-0.26-0.32-0.22-0.79,0.1-1.05l0,0 c0.32-0.271,0.79-0.23,1.06,0.09l0,0c0.26,0.32,0.22,0.8-0.1,1.06l0,0c-0.14,0.12-0.31,0.17-0.48,0.17l0,0 C31.31,66.069,31.1,65.979,30.95,65.8z M70.4,62.67c-0.36-0.2-0.48-0.66-0.27-1.021l0,0c0.2-0.359,0.66-0.479,1.02-0.27l0,0 c0.36,0.21,0.48,0.66,0.27,1.02l0,0l0,0l0,0c-0.14,0.24-0.39,0.381-0.65,0.381l0,0C70.64,62.78,70.51,62.74,70.4,62.67z M28.49,62.25c-0.21-0.36-0.08-0.82,0.28-1.021l0,0c0.36-0.21,0.82-0.08,1.02,0.28l0,0c0.21,0.36,0.08,0.81-0.28,1.021l0,0 c-0.12,0.069-0.24,0.1-0.37,0.1l0,0C28.88,62.63,28.63,62.49,28.49,62.25z"></path><path fill="#4792dd" d="M27.375,50.375C27.168,50.375,27,50.207,27,50c0-12.682,10.318-23,23-23 c0.207,0,0.375,0.168,0.375,0.375S50.207,27.75,50,27.75c-12.269,0-22.25,9.981-22.25,22.25 C27.75,50.207,27.582,50.375,27.375,50.375z"></path><path fill="#4792dd" d="M50,73c-12.682,0-23-10.318-23-23c0-0.207,0.168-0.375,0.375-0.375S27.75,49.793,27.75,50 c0,12.269,9.981,22.25,22.25,22.25S72.25,62.269,72.25,50c0-0.207,0.168-0.375,0.375-0.375S73,49.793,73,50 C73,62.682,62.682,73,50,73z"></path><path fill="#18c9c4" d="M28.97,33.87c-0.22-0.17-0.25-0.49-0.08-0.7l0,0l0,0l0,0c0.17-0.22,0.49-0.25,0.7-0.08l0,0 c0.22,0.17,0.25,0.49,0.08,0.7l0,0c-0.1,0.12-0.24,0.189-0.39,0.189l0,0C29.17,33.979,29.06,33.939,28.97,33.87z M30.9,31.62 c-0.19-0.2-0.19-0.521,0-0.71l0,0c0.2-0.19,0.52-0.19,0.71,0l0,0c0.2,0.189,0.2,0.51,0,0.71l0,0c-0.1,0.1-0.22,0.14-0.35,0.14l0,0 C31.13,31.76,31,31.72,30.9,31.62z M33.08,29.6c-0.17-0.22-0.14-0.54,0.08-0.71l0,0c0.21-0.17,0.53-0.13,0.7,0.08l0,0 c0.17,0.22,0.14,0.53-0.08,0.7l0,0c-0.09,0.08-0.2,0.11-0.31,0.11l0,0C33.33,29.78,33.18,29.72,33.08,29.6z"></path><path fill="#18c9c4" d="M65.97,71.16c-0.17-0.221-0.14-0.53,0.08-0.71l0,0c0.22-0.17,0.53-0.131,0.7,0.09l0,0 c0.17,0.22,0.14,0.529-0.08,0.7l0,0c-0.09,0.069-0.2,0.109-0.31,0.109l0,0C66.21,71.35,66.07,71.28,65.97,71.16z M32.76,70.78 L32.76,70.78L32.76,70.78c-0.21-0.181-0.24-0.49-0.07-0.7l0,0c0.18-0.221,0.49-0.25,0.71-0.07l0,0c0.21,0.18,0.24,0.49,0.06,0.7 l0,0c-0.1,0.12-0.24,0.18-0.38,0.18l0,0C32.97,70.89,32.85,70.85,32.76,70.78z M68.25,69.22c-0.19-0.2-0.19-0.52,0.01-0.71l0,0 c0.19-0.19,0.51-0.19,0.71,0l0,0c0.19,0.2,0.19,0.521-0.01,0.71l0,0l0,0l0,0c-0.1,0.1-0.22,0.15-0.35,0.15l0,0 C68.48,69.37,68.35,69.319,68.25,69.22z M30.52,68.7L30.52,68.7L30.52,68.7c-0.19-0.2-0.18-0.521,0.02-0.71l0,0 c0.2-0.19,0.51-0.181,0.7,0.02V68c0.2,0.2,0.19,0.52-0.01,0.71l0,0c-0.1,0.1-0.22,0.14-0.35,0.14l0,0 C30.75,68.85,30.62,68.8,30.52,68.7z M70.31,67.03c-0.22-0.171-0.25-0.48-0.08-0.7l0,0c0.18-0.21,0.49-0.25,0.71-0.07l0,0 c0.21,0.17,0.24,0.48,0.07,0.7l0,0l0,0l0,0c-0.1,0.12-0.24,0.189-0.39,0.189l0,0C70.51,67.149,70.4,67.109,70.31,67.03z M28.54,66.38c-0.17-0.22-0.13-0.53,0.09-0.7l0,0c0.22-0.17,0.53-0.13,0.7,0.09l0,0c0.17,0.221,0.13,0.54-0.09,0.71l0,0 c-0.09,0.061-0.2,0.101-0.31,0.101l0,0C28.78,66.58,28.63,66.51,28.54,66.38z"></path><path fill="#4792dd" d="M50,70.5c-2.244,0-4.486-0.38-6.663-1.129c-0.261-0.09-0.4-0.374-0.31-0.635 c0.089-0.262,0.374-0.4,0.635-0.31C45.734,69.139,47.867,69.5,50,69.5c10.752,0,19.5-8.748,19.5-19.5 c0-1.087-0.104-2.204-0.317-3.413c-0.048-0.272,0.133-0.531,0.405-0.579c0.27-0.052,0.532,0.133,0.579,0.405 C70.391,47.681,70.5,48.854,70.5,50C70.5,61.304,61.304,70.5,50,70.5z"></path><path fill="#4792dd" d="M35.5,64.249c-0.132,0-0.265-0.052-0.363-0.156C31.502,60.26,29.5,55.255,29.5,50 c0-7.136,3.64-13.649,9.737-17.424c0.235-0.146,0.543-0.073,0.688,0.162c0.145,0.235,0.073,0.543-0.162,0.688 C33.963,37.017,30.5,43.213,30.5,50c0,4.998,1.904,9.758,5.363,13.404c0.19,0.201,0.182,0.517-0.019,0.707 C35.748,64.203,35.624,64.249,35.5,64.249z"></path><path fill="#4792dd" d="M67,40c-0.167,0-0.331-0.084-0.426-0.237C62.983,33.963,56.787,30.5,50,30.5 c-1.43,0-2.906,0.173-4.388,0.514c-0.271,0.062-0.538-0.105-0.6-0.375c-0.062-0.269,0.106-0.538,0.375-0.6 c1.555-0.358,3.107-0.54,4.612-0.54c7.136,0,13.649,3.64,17.424,9.737c0.145,0.235,0.073,0.543-0.162,0.688 C67.18,39.976,67.089,40,67,40z"></path><path fill="#4792dd" d="M27.5,38.513c-0.08,0-0.16-0.019-0.235-0.059c-0.244-0.13-0.336-0.433-0.206-0.676 c2.443-4.576,6.144-8.282,10.702-10.719c0.244-0.13,0.547-0.039,0.677,0.205c0.13,0.244,0.039,0.546-0.205,0.677 c-4.383,2.343-7.942,5.908-10.292,10.308C27.851,38.417,27.678,38.513,27.5,38.513z"></path><path fill="#4792dd" d="M72.5,38.505c-0.179,0-0.352-0.096-0.441-0.264c-2.349-4.395-5.908-7.957-10.292-10.3 c-0.244-0.13-0.335-0.433-0.205-0.677c0.13-0.244,0.433-0.335,0.677-0.205c4.559,2.438,8.26,6.141,10.702,10.71 c0.13,0.244,0.038,0.546-0.205,0.677C72.661,38.486,72.58,38.505,72.5,38.505z"></path><path fill="#4792dd" d="M62.003,73c-0.179,0-0.352-0.096-0.441-0.264c-0.13-0.244-0.039-0.546,0.205-0.677 c4.388-2.346,7.946-5.904,10.292-10.292c0.13-0.243,0.433-0.335,0.677-0.205c0.244,0.13,0.335,0.433,0.205,0.677 c-2.439,4.562-6.14,8.263-10.702,10.702C62.164,72.981,62.083,73,62.003,73z"></path><path fill="#4792dd" d="M37.997,73c-0.08,0-0.16-0.019-0.235-0.059c-4.562-2.439-8.263-6.14-10.702-10.702 c-0.13-0.244-0.039-0.546,0.205-0.677c0.244-0.13,0.547-0.038,0.677,0.205c2.346,4.388,5.904,7.946,10.292,10.292 c0.244,0.13,0.335,0.433,0.205,0.677C38.348,72.904,38.175,73,37.997,73z"></path><path fill="#6ee7ea" d="M50,67c-4.541,0-8.81-1.769-12.021-4.979l1.414-1.414C42.227,63.439,45.993,65,50,65 s7.773-1.561,10.606-4.394S65,54.007,65,50s-1.561-7.773-4.394-10.606l1.414-1.414C65.231,41.19,67,45.459,67,50 s-1.769,8.81-4.979,12.021C58.81,65.231,54.541,67,50,67z"></path><path fill="#55a7f9" d="M60.606,39.394c2.578,2.578,4.088,5.932,4.341,9.534l1.796-1.796 c-0.584-3.448-2.2-6.629-4.723-9.152L60.606,39.394z"></path><path fill="#55a7f9" d="M37.979,62.021c2.523,2.523,5.703,4.139,9.152,4.723l1.796-1.796 c-3.602-0.253-6.956-1.763-9.534-4.341L37.979,62.021z"></path><path fill="#68c8d0" d="M66.744,47.131c-0.306-1.809-0.903-3.54-1.76-5.145l-1.489,1.489 c0.817,1.696,1.318,3.537,1.453,5.452L66.744,47.131z"></path><path fill="#68c8d0" d="M48.927,64.948c-1.916-0.135-3.756-0.635-5.452-1.453l-1.489,1.489 c1.605,0.856,3.337,1.453,5.145,1.759L48.927,64.948z"></path><path fill="#fff" d="M59.879,46.909c-0.327-0.762-1.208-1.113-1.97-0.788c-1.069,0.458-2.096,0.945-3.085,1.447 l-2.862-6.317C51.618,40.491,50.856,40,50.021,40c-0.883,0-1.662,0.532-1.984,1.355l-5.969,15.281 c-0.12,0.308-0.081,0.655,0.106,0.928C42.36,57.837,42.669,58,43,58h1.5c0,0,0.001,0,0.001,0c0.401,0,0.801-0.16,1.096-0.476 c1.148-1.23,3.843-3.409,7.462-5.562l2.535,5.459C55.757,57.774,56.111,58,56.5,58H58c0.34,0,0.656-0.172,0.84-0.458 s0.211-0.645,0.07-0.955l-2.847-6.283c0.97-0.495,1.978-0.976,3.027-1.425C59.853,48.552,60.205,47.67,59.879,46.909z M47.542,51.991l2.535-6.451l1.71,3.684C50.197,50.157,48.774,51.1,47.542,51.991z"></path><path fill="#472b29" d="M65,28.4c3.639,0,6.6,2.961,6.6,6.6v30c0,3.639-2.961,6.6-6.6,6.6H35c-3.639,0-6.6-2.961-6.6-6.6V35 c0-3.639,2.961-6.6,6.6-6.6H65 M65,27H35c-4.418,0-8,3.582-8,8v30c0,4.418,3.582,8,8,8h30c4.418,0,8-3.582,8-8V35 C73,30.582,69.418,27,65,27L65,27z"></path></g>
</svg>